<mxfile host="app.diagrams.net" agent="Mozilla/5.0 (X11; Linux x86_64) AppleWebKit/537.36 (KHTML, like Gecko) Chrome/133.0.0.0 Safari/537.36" version="26.2.14" pages="3">
  <diagram name="Page-1" id="WPDTBaffszAefQdZq_r-">
    <mxGraphModel dx="1042" dy="543" grid="1" gridSize="10" guides="1" tooltips="1" connect="1" arrows="1" fold="1" page="1" pageScale="1" pageWidth="827" pageHeight="1169" math="0" shadow="0">
      <root>
        <mxCell id="0" />
        <mxCell id="1" parent="0" />
        <mxCell id="nf0-fgeUcj0NWw3_E3Y0-1" value="CRI Mobile app" style="text;align=center;fontStyle=1;verticalAlign=top;spacingLeft=3;spacingRight=3;strokeColor=default;rotatable=0;points=[[0,0.5],[1,0.5]];portConstraint=eastwest;html=1;fillColor=default;" vertex="1" parent="1">
          <mxGeometry x="159" y="90" width="550" height="920" as="geometry" />
        </mxCell>
        <mxCell id="nf0-fgeUcj0NWw3_E3Y0-17" style="rounded=0;orthogonalLoop=1;jettySize=auto;html=1;exitX=1;exitY=0.3333333333333333;exitDx=0;exitDy=0;exitPerimeter=0;" edge="1" parent="1" source="nf0-fgeUcj0NWw3_E3Y0-3" target="nf0-fgeUcj0NWw3_E3Y0-5">
          <mxGeometry relative="1" as="geometry" />
        </mxCell>
        <mxCell id="nf0-fgeUcj0NWw3_E3Y0-18" style="rounded=0;orthogonalLoop=1;jettySize=auto;html=1;exitX=0.5;exitY=0.5;exitDx=0;exitDy=0;exitPerimeter=0;" edge="1" parent="1" source="nf0-fgeUcj0NWw3_E3Y0-3" target="nf0-fgeUcj0NWw3_E3Y0-6">
          <mxGeometry relative="1" as="geometry" />
        </mxCell>
        <mxCell id="nf0-fgeUcj0NWw3_E3Y0-19" style="rounded=0;orthogonalLoop=1;jettySize=auto;html=1;exitX=0.5;exitY=0.5;exitDx=0;exitDy=0;exitPerimeter=0;" edge="1" parent="1" source="nf0-fgeUcj0NWw3_E3Y0-3" target="nf0-fgeUcj0NWw3_E3Y0-7">
          <mxGeometry relative="1" as="geometry" />
        </mxCell>
        <mxCell id="nf0-fgeUcj0NWw3_E3Y0-20" style="rounded=0;orthogonalLoop=1;jettySize=auto;html=1;exitX=0.5;exitY=0.5;exitDx=0;exitDy=0;exitPerimeter=0;" edge="1" parent="1" source="nf0-fgeUcj0NWw3_E3Y0-3" target="nf0-fgeUcj0NWw3_E3Y0-8">
          <mxGeometry relative="1" as="geometry" />
        </mxCell>
        <mxCell id="nf0-fgeUcj0NWw3_E3Y0-21" style="rounded=0;orthogonalLoop=1;jettySize=auto;html=1;exitX=0.5;exitY=0.5;exitDx=0;exitDy=0;exitPerimeter=0;" edge="1" parent="1" source="nf0-fgeUcj0NWw3_E3Y0-3" target="nf0-fgeUcj0NWw3_E3Y0-9">
          <mxGeometry relative="1" as="geometry" />
        </mxCell>
        <mxCell id="nf0-fgeUcj0NWw3_E3Y0-22" style="rounded=0;orthogonalLoop=1;jettySize=auto;html=1;exitX=0.5;exitY=0.5;exitDx=0;exitDy=0;exitPerimeter=0;" edge="1" parent="1" source="nf0-fgeUcj0NWw3_E3Y0-3" target="nf0-fgeUcj0NWw3_E3Y0-10">
          <mxGeometry relative="1" as="geometry" />
        </mxCell>
        <mxCell id="nf0-fgeUcj0NWw3_E3Y0-23" style="rounded=0;orthogonalLoop=1;jettySize=auto;html=1;exitX=0.5;exitY=0.5;exitDx=0;exitDy=0;exitPerimeter=0;" edge="1" parent="1" source="nf0-fgeUcj0NWw3_E3Y0-3" target="nf0-fgeUcj0NWw3_E3Y0-12">
          <mxGeometry relative="1" as="geometry" />
        </mxCell>
        <mxCell id="nf0-fgeUcj0NWw3_E3Y0-24" style="rounded=0;orthogonalLoop=1;jettySize=auto;html=1;exitX=0.5;exitY=0.5;exitDx=0;exitDy=0;exitPerimeter=0;" edge="1" parent="1" source="nf0-fgeUcj0NWw3_E3Y0-3" target="nf0-fgeUcj0NWw3_E3Y0-14">
          <mxGeometry relative="1" as="geometry" />
        </mxCell>
        <mxCell id="nf0-fgeUcj0NWw3_E3Y0-25" style="rounded=0;orthogonalLoop=1;jettySize=auto;html=1;exitX=0.5;exitY=0.5;exitDx=0;exitDy=0;exitPerimeter=0;" edge="1" parent="1" source="nf0-fgeUcj0NWw3_E3Y0-3" target="nf0-fgeUcj0NWw3_E3Y0-11">
          <mxGeometry relative="1" as="geometry" />
        </mxCell>
        <mxCell id="nf0-fgeUcj0NWw3_E3Y0-26" style="rounded=0;orthogonalLoop=1;jettySize=auto;html=1;exitX=0.5;exitY=0.5;exitDx=0;exitDy=0;exitPerimeter=0;" edge="1" parent="1" source="nf0-fgeUcj0NWw3_E3Y0-3" target="nf0-fgeUcj0NWw3_E3Y0-13">
          <mxGeometry relative="1" as="geometry" />
        </mxCell>
        <mxCell id="nf0-fgeUcj0NWw3_E3Y0-3" value="User" style="shape=umlActor;verticalLabelPosition=bottom;verticalAlign=top;html=1;" vertex="1" parent="1">
          <mxGeometry x="9" y="575" width="30" height="60" as="geometry" />
        </mxCell>
        <mxCell id="nf0-fgeUcj0NWw3_E3Y0-5" value="View church programs and announcements" style="ellipse;whiteSpace=wrap;html=1;" vertex="1" parent="1">
          <mxGeometry x="233" y="140" width="140" height="70" as="geometry" />
        </mxCell>
        <mxCell id="nf0-fgeUcj0NWw3_E3Y0-6" value="Filter Church Programs by category/timezone" style="ellipse;whiteSpace=wrap;html=1;" vertex="1" parent="1">
          <mxGeometry x="319" y="210" width="140" height="70" as="geometry" />
        </mxCell>
        <mxCell id="nf0-fgeUcj0NWw3_E3Y0-7" value="Save Audio for Offline Access" style="ellipse;whiteSpace=wrap;html=1;" vertex="1" parent="1">
          <mxGeometry x="379" y="300" width="140" height="70" as="geometry" />
        </mxCell>
        <mxCell id="nf0-fgeUcj0NWw3_E3Y0-8" value="Receive Push Notifications" style="ellipse;whiteSpace=wrap;html=1;" vertex="1" parent="1">
          <mxGeometry x="409" y="390" width="140" height="70" as="geometry" />
        </mxCell>
        <mxCell id="nf0-fgeUcj0NWw3_E3Y0-9" value="Access Google Meet Links" style="ellipse;whiteSpace=wrap;html=1;" vertex="1" parent="1">
          <mxGeometry x="429" y="490" width="140" height="70" as="geometry" />
        </mxCell>
        <mxCell id="nf0-fgeUcj0NWw3_E3Y0-10" value="Select Language,&amp;nbsp; Country/Time Zone" style="ellipse;whiteSpace=wrap;html=1;" vertex="1" parent="1">
          <mxGeometry x="429" y="570" width="140" height="70" as="geometry" />
        </mxCell>
        <mxCell id="nf0-fgeUcj0NWw3_E3Y0-30" style="edgeStyle=orthogonalEdgeStyle;rounded=0;orthogonalLoop=1;jettySize=auto;html=1;exitX=1;exitY=0.5;exitDx=0;exitDy=0;entryX=1;entryY=1;entryDx=0;entryDy=0;curved=1;dashed=1;" edge="1" parent="1" source="nf0-fgeUcj0NWw3_E3Y0-11" target="nf0-fgeUcj0NWw3_E3Y0-14">
          <mxGeometry relative="1" as="geometry">
            <Array as="points">
              <mxPoint x="499" y="865" />
            </Array>
          </mxGeometry>
        </mxCell>
        <mxCell id="nf0-fgeUcj0NWw3_E3Y0-31" value="&amp;lt;&amp;lt;extend&amp;gt;&amp;gt;" style="edgeLabel;html=1;align=center;verticalAlign=middle;resizable=0;points=[];" vertex="1" connectable="0" parent="nf0-fgeUcj0NWw3_E3Y0-30">
          <mxGeometry x="0.277" y="4" relative="1" as="geometry">
            <mxPoint y="-1" as="offset" />
          </mxGeometry>
        </mxCell>
        <mxCell id="nf0-fgeUcj0NWw3_E3Y0-11" value="Like/Dislike Testimonies" style="ellipse;whiteSpace=wrap;html=1;" vertex="1" parent="1">
          <mxGeometry x="319" y="830" width="140" height="70" as="geometry" />
        </mxCell>
        <mxCell id="nf0-fgeUcj0NWw3_E3Y0-12" value="Share Testimony via WhatsApp" style="ellipse;whiteSpace=wrap;html=1;" vertex="1" parent="1">
          <mxGeometry x="409" y="655" width="140" height="70" as="geometry" />
        </mxCell>
        <mxCell id="nf0-fgeUcj0NWw3_E3Y0-28" style="edgeStyle=orthogonalEdgeStyle;rounded=0;orthogonalLoop=1;jettySize=auto;html=1;exitX=1;exitY=0.5;exitDx=0;exitDy=0;curved=1;dashed=1;" edge="1" parent="1" source="nf0-fgeUcj0NWw3_E3Y0-13" target="nf0-fgeUcj0NWw3_E3Y0-14">
          <mxGeometry relative="1" as="geometry">
            <Array as="points">
              <mxPoint x="589" y="945" />
              <mxPoint x="589" y="785" />
            </Array>
          </mxGeometry>
        </mxCell>
        <mxCell id="nf0-fgeUcj0NWw3_E3Y0-29" value="&amp;lt;&amp;lt;extend&amp;gt;&amp;gt;" style="edgeLabel;html=1;align=center;verticalAlign=middle;resizable=0;points=[];" vertex="1" connectable="0" parent="nf0-fgeUcj0NWw3_E3Y0-28">
          <mxGeometry x="0.1883" y="10" relative="1" as="geometry">
            <mxPoint as="offset" />
          </mxGeometry>
        </mxCell>
        <mxCell id="nf0-fgeUcj0NWw3_E3Y0-13" value="Comment on Testimonies" style="ellipse;whiteSpace=wrap;html=1;" vertex="1" parent="1">
          <mxGeometry x="233" y="910" width="140" height="70" as="geometry" />
        </mxCell>
        <mxCell id="nf0-fgeUcj0NWw3_E3Y0-14" value="Register/Login" style="ellipse;whiteSpace=wrap;html=1;" vertex="1" parent="1">
          <mxGeometry x="379" y="750" width="140" height="70" as="geometry" />
        </mxCell>
        <mxCell id="nf0-fgeUcj0NWw3_E3Y0-27" style="rounded=0;orthogonalLoop=1;jettySize=auto;html=1;exitX=0.5;exitY=0.5;exitDx=0;exitDy=0;exitPerimeter=0;" edge="1" parent="1" source="nf0-fgeUcj0NWw3_E3Y0-15" target="nf0-fgeUcj0NWw3_E3Y0-12">
          <mxGeometry relative="1" as="geometry" />
        </mxCell>
        <mxCell id="nf0-fgeUcj0NWw3_E3Y0-15" value="Admin" style="shape=umlActor;verticalLabelPosition=bottom;verticalAlign=top;html=1;" vertex="1" parent="1">
          <mxGeometry x="789" y="560" width="30" height="60" as="geometry" />
        </mxCell>
        <mxCell id="nf0-fgeUcj0NWw3_E3Y0-32" value="&lt;font style=&quot;font-size: 22px;&quot;&gt;User Interaction Use Diagram&lt;/font&gt;" style="text;align=center;fontStyle=1;verticalAlign=middle;spacingLeft=3;spacingRight=3;strokeColor=none;rotatable=0;points=[[0,0.5],[1,0.5]];portConstraint=eastwest;html=1;" vertex="1" parent="1">
          <mxGeometry x="130" y="20" width="359" height="26" as="geometry" />
        </mxCell>
      </root>
    </mxGraphModel>
  </diagram>
  <diagram id="xQeLmNMhFnKRFFIqsh-A" name="Page-2">
    <mxGraphModel dx="1042" dy="543" grid="1" gridSize="10" guides="1" tooltips="1" connect="1" arrows="1" fold="1" page="1" pageScale="1" pageWidth="827" pageHeight="1169" math="0" shadow="0">
      <root>
        <mxCell id="0" />
        <mxCell id="1" parent="0" />
        <mxCell id="S4OCHnE-v1m97xP8J23k-1" value="CRI Mobile app" style="text;align=center;fontStyle=1;verticalAlign=top;spacingLeft=3;spacingRight=3;strokeColor=default;rotatable=0;points=[[0,0.5],[1,0.5]];portConstraint=eastwest;html=1;fillColor=default;" vertex="1" parent="1">
          <mxGeometry x="159" y="90" width="550" height="790" as="geometry" />
        </mxCell>
        <mxCell id="S4OCHnE-v1m97xP8J23k-2" style="rounded=0;orthogonalLoop=1;jettySize=auto;html=1;exitX=1;exitY=0.3333333333333333;exitDx=0;exitDy=0;exitPerimeter=0;" edge="1" parent="1" source="S4OCHnE-v1m97xP8J23k-12" target="S4OCHnE-v1m97xP8J23k-13">
          <mxGeometry relative="1" as="geometry" />
        </mxCell>
        <mxCell id="S4OCHnE-v1m97xP8J23k-3" style="rounded=0;orthogonalLoop=1;jettySize=auto;html=1;exitX=0.5;exitY=0.5;exitDx=0;exitDy=0;exitPerimeter=0;" edge="1" parent="1" source="S4OCHnE-v1m97xP8J23k-12" target="S4OCHnE-v1m97xP8J23k-14">
          <mxGeometry relative="1" as="geometry" />
        </mxCell>
        <mxCell id="S4OCHnE-v1m97xP8J23k-4" style="rounded=0;orthogonalLoop=1;jettySize=auto;html=1;exitX=0.5;exitY=0.5;exitDx=0;exitDy=0;exitPerimeter=0;" edge="1" parent="1" source="S4OCHnE-v1m97xP8J23k-12" target="S4OCHnE-v1m97xP8J23k-15">
          <mxGeometry relative="1" as="geometry" />
        </mxCell>
        <mxCell id="S4OCHnE-v1m97xP8J23k-5" style="rounded=0;orthogonalLoop=1;jettySize=auto;html=1;exitX=0.5;exitY=0.5;exitDx=0;exitDy=0;exitPerimeter=0;" edge="1" parent="1" source="S4OCHnE-v1m97xP8J23k-12" target="S4OCHnE-v1m97xP8J23k-16">
          <mxGeometry relative="1" as="geometry" />
        </mxCell>
        <mxCell id="S4OCHnE-v1m97xP8J23k-6" style="rounded=0;orthogonalLoop=1;jettySize=auto;html=1;exitX=0.5;exitY=0.5;exitDx=0;exitDy=0;exitPerimeter=0;" edge="1" parent="1" source="S4OCHnE-v1m97xP8J23k-12" target="S4OCHnE-v1m97xP8J23k-17">
          <mxGeometry relative="1" as="geometry" />
        </mxCell>
        <mxCell id="S4OCHnE-v1m97xP8J23k-7" style="rounded=0;orthogonalLoop=1;jettySize=auto;html=1;exitX=0.5;exitY=0.5;exitDx=0;exitDy=0;exitPerimeter=0;" edge="1" parent="1" source="S4OCHnE-v1m97xP8J23k-12" target="S4OCHnE-v1m97xP8J23k-18">
          <mxGeometry relative="1" as="geometry" />
        </mxCell>
        <mxCell id="S4OCHnE-v1m97xP8J23k-8" style="rounded=0;orthogonalLoop=1;jettySize=auto;html=1;exitX=0.5;exitY=0.5;exitDx=0;exitDy=0;exitPerimeter=0;" edge="1" parent="1" source="S4OCHnE-v1m97xP8J23k-12" target="S4OCHnE-v1m97xP8J23k-22">
          <mxGeometry relative="1" as="geometry" />
        </mxCell>
        <mxCell id="S4OCHnE-v1m97xP8J23k-9" style="rounded=0;orthogonalLoop=1;jettySize=auto;html=1;exitX=0.5;exitY=0.5;exitDx=0;exitDy=0;exitPerimeter=0;" edge="1" parent="1" source="S4OCHnE-v1m97xP8J23k-12" target="S4OCHnE-v1m97xP8J23k-26">
          <mxGeometry relative="1" as="geometry" />
        </mxCell>
        <mxCell id="S4OCHnE-v1m97xP8J23k-12" value="Admin" style="shape=umlActor;verticalLabelPosition=bottom;verticalAlign=top;html=1;" vertex="1" parent="1">
          <mxGeometry x="20" y="480" width="30" height="60" as="geometry" />
        </mxCell>
        <mxCell id="S4OCHnE-v1m97xP8J23k-13" value="Create/edit/delete announcements and programs" style="ellipse;whiteSpace=wrap;html=1;" vertex="1" parent="1">
          <mxGeometry x="349" y="220" width="140" height="70" as="geometry" />
        </mxCell>
        <mxCell id="S4OCHnE-v1m97xP8J23k-14" value="Attach PDFs/images/links" style="ellipse;whiteSpace=wrap;html=1;" vertex="1" parent="1">
          <mxGeometry x="420" y="300" width="140" height="70" as="geometry" />
        </mxCell>
        <mxCell id="S4OCHnE-v1m97xP8J23k-15" value="Schedule recurring programs" style="ellipse;whiteSpace=wrap;html=1;" vertex="1" parent="1">
          <mxGeometry x="460" y="390" width="140" height="70" as="geometry" />
        </mxCell>
        <mxCell id="S4OCHnE-v1m97xP8J23k-16" value="Moderate testimonies (approve/reject/delete)" style="ellipse;whiteSpace=wrap;html=1;" vertex="1" parent="1">
          <mxGeometry x="460" y="485" width="140" height="70" as="geometry" />
        </mxCell>
        <mxCell id="S4OCHnE-v1m97xP8J23k-17" value="Update support page with donation methods" style="ellipse;whiteSpace=wrap;html=1;" vertex="1" parent="1">
          <mxGeometry x="420" y="565" width="140" height="70" as="geometry" />
        </mxCell>
        <mxCell id="S4OCHnE-v1m97xP8J23k-18" value="&lt;li class=&quot;&quot; data-end=&quot;970&quot; data-start=&quot;932&quot;&gt;&lt;p class=&quot;&quot; data-end=&quot;970&quot; data-start=&quot;934&quot;&gt;Attach Google Meet links to events&lt;/p&gt;&lt;/li&gt;&lt;li class=&quot;&quot; data-end=&quot;1000&quot; data-start=&quot;971&quot;&gt;&lt;p class=&quot;&quot; data-end=&quot;1000&quot; data-start=&quot;973&quot;&gt;&lt;/p&gt;&lt;/li&gt;" style="ellipse;whiteSpace=wrap;html=1;" vertex="1" parent="1">
          <mxGeometry x="349" y="650" width="140" height="70" as="geometry" />
        </mxCell>
        <mxCell id="S4OCHnE-v1m97xP8J23k-22" value="Submit updates for approval" style="ellipse;whiteSpace=wrap;html=1;" vertex="1" parent="1">
          <mxGeometry x="239.5" y="770" width="140" height="70" as="geometry" />
        </mxCell>
        <mxCell id="S4OCHnE-v1m97xP8J23k-26" value="Login" style="ellipse;whiteSpace=wrap;html=1;" vertex="1" parent="1">
          <mxGeometry x="230" y="150" width="140" height="70" as="geometry" />
        </mxCell>
        <mxCell id="S4OCHnE-v1m97xP8J23k-27" style="rounded=0;orthogonalLoop=1;jettySize=auto;html=1;exitX=0.5;exitY=0.5;exitDx=0;exitDy=0;exitPerimeter=0;" edge="1" parent="1" source="S4OCHnE-v1m97xP8J23k-28" target="S4OCHnE-v1m97xP8J23k-22">
          <mxGeometry relative="1" as="geometry" />
        </mxCell>
        <mxCell id="S4OCHnE-v1m97xP8J23k-28" value="Super Admin" style="shape=umlActor;verticalLabelPosition=bottom;verticalAlign=top;html=1;" vertex="1" parent="1">
          <mxGeometry x="770" y="555" width="30" height="60" as="geometry" />
        </mxCell>
        <mxCell id="S4OCHnE-v1m97xP8J23k-29" value="&lt;font style=&quot;font-size: 22px;&quot;&gt;Admin Functionality Use Diagram&lt;/font&gt;" style="text;align=center;fontStyle=1;verticalAlign=middle;spacingLeft=3;spacingRight=3;strokeColor=none;rotatable=0;points=[[0,0.5],[1,0.5]];portConstraint=eastwest;html=1;" vertex="1" parent="1">
          <mxGeometry x="150" y="20" width="359" height="26" as="geometry" />
        </mxCell>
      </root>
    </mxGraphModel>
  </diagram>
  <diagram id="r5B61xtTqX5duBL9k4Zh" name="Page-3">
    <mxGraphModel dx="1042" dy="543" grid="1" gridSize="10" guides="1" tooltips="1" connect="1" arrows="1" fold="1" page="1" pageScale="1" pageWidth="827" pageHeight="1169" math="0" shadow="0">
      <root>
        <mxCell id="0" />
        <mxCell id="1" parent="0" />
        <mxCell id="FbkN8trQEGjvtuXfV_kn-1" value="CRI Mobile app" style="text;align=center;fontStyle=1;verticalAlign=top;spacingLeft=3;spacingRight=3;strokeColor=default;rotatable=0;points=[[0,0.5],[1,0.5]];portConstraint=eastwest;html=1;fillColor=default;" vertex="1" parent="1">
          <mxGeometry x="159" y="90" width="550" height="650" as="geometry" />
        </mxCell>
        <mxCell id="FbkN8trQEGjvtuXfV_kn-2" style="rounded=0;orthogonalLoop=1;jettySize=auto;html=1;exitX=1;exitY=0.3333333333333333;exitDx=0;exitDy=0;exitPerimeter=0;" edge="1" parent="1" source="FbkN8trQEGjvtuXfV_kn-10" target="FbkN8trQEGjvtuXfV_kn-11">
          <mxGeometry relative="1" as="geometry" />
        </mxCell>
        <mxCell id="FbkN8trQEGjvtuXfV_kn-3" style="rounded=0;orthogonalLoop=1;jettySize=auto;html=1;exitX=0.5;exitY=0.5;exitDx=0;exitDy=0;exitPerimeter=0;" edge="1" parent="1" source="FbkN8trQEGjvtuXfV_kn-10" target="FbkN8trQEGjvtuXfV_kn-12">
          <mxGeometry relative="1" as="geometry" />
        </mxCell>
        <mxCell id="FbkN8trQEGjvtuXfV_kn-4" style="rounded=0;orthogonalLoop=1;jettySize=auto;html=1;exitX=0.5;exitY=0.5;exitDx=0;exitDy=0;exitPerimeter=0;" edge="1" parent="1" source="FbkN8trQEGjvtuXfV_kn-10" target="FbkN8trQEGjvtuXfV_kn-13">
          <mxGeometry relative="1" as="geometry" />
        </mxCell>
        <mxCell id="FbkN8trQEGjvtuXfV_kn-5" style="rounded=0;orthogonalLoop=1;jettySize=auto;html=1;exitX=0.5;exitY=0.5;exitDx=0;exitDy=0;exitPerimeter=0;" edge="1" parent="1" source="FbkN8trQEGjvtuXfV_kn-10" target="FbkN8trQEGjvtuXfV_kn-14">
          <mxGeometry relative="1" as="geometry" />
        </mxCell>
        <mxCell id="FbkN8trQEGjvtuXfV_kn-6" style="rounded=0;orthogonalLoop=1;jettySize=auto;html=1;exitX=0.5;exitY=0.5;exitDx=0;exitDy=0;exitPerimeter=0;" edge="1" parent="1" source="FbkN8trQEGjvtuXfV_kn-10" target="FbkN8trQEGjvtuXfV_kn-15">
          <mxGeometry relative="1" as="geometry" />
        </mxCell>
        <mxCell id="FbkN8trQEGjvtuXfV_kn-9" style="rounded=0;orthogonalLoop=1;jettySize=auto;html=1;exitX=0.5;exitY=0.5;exitDx=0;exitDy=0;exitPerimeter=0;" edge="1" parent="1" source="FbkN8trQEGjvtuXfV_kn-10" target="FbkN8trQEGjvtuXfV_kn-18">
          <mxGeometry relative="1" as="geometry" />
        </mxCell>
        <mxCell id="FbkN8trQEGjvtuXfV_kn-10" value="Super Admin" style="shape=umlActor;verticalLabelPosition=bottom;verticalAlign=top;html=1;" vertex="1" parent="1">
          <mxGeometry x="30" y="400" width="30" height="60" as="geometry" />
        </mxCell>
        <mxCell id="FbkN8trQEGjvtuXfV_kn-11" value="Approve/reject admin updates" style="ellipse;whiteSpace=wrap;html=1;" vertex="1" parent="1">
          <mxGeometry x="349" y="220" width="140" height="70" as="geometry" />
        </mxCell>
        <mxCell id="FbkN8trQEGjvtuXfV_kn-12" value="Revert admin changes" style="ellipse;whiteSpace=wrap;html=1;" vertex="1" parent="1">
          <mxGeometry x="420" y="320" width="140" height="70" as="geometry" />
        </mxCell>
        <mxCell id="FbkN8trQEGjvtuXfV_kn-13" value="Manage admins and user accounts (suspend accounts, grant/withdraw admin rights)" style="ellipse;whiteSpace=wrap;html=1;" vertex="1" parent="1">
          <mxGeometry x="430" y="440" width="180" height="80" as="geometry" />
        </mxCell>
        <mxCell id="FbkN8trQEGjvtuXfV_kn-14" value="&lt;li class=&quot;&quot; data-end=&quot;1245&quot; data-start=&quot;1210&quot;&gt;&lt;p class=&quot;&quot; data-end=&quot;1245&quot; data-start=&quot;1212&quot;&gt;Receive automatic notifications on Admins actions&lt;/p&gt;&lt;/li&gt;" style="ellipse;whiteSpace=wrap;html=1;" vertex="1" parent="1">
          <mxGeometry x="344" y="540" width="140" height="70" as="geometry" />
        </mxCell>
        <mxCell id="FbkN8trQEGjvtuXfV_kn-15" value="&lt;li class=&quot;&quot; data-end=&quot;1301&quot; data-start=&quot;1246&quot;&gt;&lt;p class=&quot;&quot; data-end=&quot;1301&quot; data-start=&quot;1248&quot;&gt;Let updates auto-publish after 6 hours if no action&lt;/p&gt;&lt;/li&gt;" style="ellipse;whiteSpace=wrap;html=1;" vertex="1" parent="1">
          <mxGeometry x="230" y="630" width="140" height="70" as="geometry" />
        </mxCell>
        <mxCell id="FbkN8trQEGjvtuXfV_kn-18" value="Login" style="ellipse;whiteSpace=wrap;html=1;" vertex="1" parent="1">
          <mxGeometry x="230" y="150" width="140" height="70" as="geometry" />
        </mxCell>
        <mxCell id="FbkN8trQEGjvtuXfV_kn-21" value="&lt;font style=&quot;font-size: 22px;&quot;&gt;Super Admin Responsibility Use Diagram&lt;/font&gt;" style="text;align=center;fontStyle=1;verticalAlign=middle;spacingLeft=3;spacingRight=3;strokeColor=none;rotatable=0;points=[[0,0.5],[1,0.5]];portConstraint=eastwest;html=1;" vertex="1" parent="1">
          <mxGeometry x="151" y="20" width="449" height="26" as="geometry" />
        </mxCell>
      </root>
    </mxGraphModel>
  </diagram>
</mxfile>
